<?xml version="1.0" encoding="UTF-8"?>
<svg width="712px" height="511px" viewBox="0 0 712 511" version="1.1" xmlns="http://www.w3.org/2000/svg" xmlns:xlink="http://www.w3.org/1999/xlink">
    <!-- Generator: sketchtool 54.1 (76490) - https://sketchapp.com -->
    <title>C18E3D64-46CC-4A1F-992F-D680F4DFBEDB</title>
    <desc>Created with sketchtool.</desc>
    <g id="Page-1" stroke="none" stroke-width="1" fill="none" fill-rule="evenodd">
        <g id="BetterDesk" transform="translate(-727.000000, -162.000000)">
            <g id="Header">
                <g id="Illustration" transform="translate(727.000000, 162.000000)">
                    <polyline id="Fill-148" fill="#545274" points="530.877544 309.509595 356.3845 81.5156601 204.944711 323.982797 530.877544 309.509595"></polyline>
                    <polyline id="Fill-149" fill="#6A708D" points="612.849878 345.654118 437.226411 59.8108758 280.037522 302.274667 612.849878 345.654118"></polyline>
                    <polyline id="Fill-150" fill="#8F99C0" points="630.016911 414.359163 478.577122 171.895373 327.140678 414.359163 630.016911 414.359163"></polyline>
                    <polyline id="Fill-151" fill="#535173" points="419.433967 379.720523 240.573078 144.190484 76.8324222 393.818928 419.433967 379.720523"></polyline>
                    <path d="M627.475133,382.444497 C627.639011,379.727216 627.722622,340.614431 627.722622,337.786719 C627.722622,306.745464 617.378256,281.57715 604.6192,281.57715 C591.863489,281.57715 581.515778,306.745464 581.515778,337.786719 C581.515778,340.614431 581.599389,379.727216 581.769956,382.444497 L627.475133,382.444497" id="Fill-152" fill="#439A86"></path>
                    <path d="M672.484222,402.351934 C672.484222,378.96344 659.391308,360 643.242111,360 C627.097147,360 614,378.96344 614,402.351934 C614,404.482516 614.105827,433.952624 614.321714,436 L672.170974,436 C672.378395,433.952624 672.484222,404.482516 672.484222,402.351934 Z" id="Fill-152-Copy" fill="#439A86" opacity="0.517140858"></path>
                    <path d="M715,418.962279 C715,405.729315 705.373552,395 693.5,395 C681.62956,395 672,405.729315 672,418.962279 C672,420.167739 672.077808,436.841616 672.236537,438 L714.769687,438 C714.922192,436.841616 715,420.167739 715,418.962279 Z" id="Fill-152-Copy-2" fill="#439A86" opacity="0.2578125"></path>
                    <path d="M121.156344,403.607163 C121.326911,400.889882 121.413867,361.777098 121.413867,358.949386 C121.413867,327.908131 111.066156,302.739817 98.3071,302.739817 C85.5447,302.739817 75.1969889,327.908131 75.1969889,358.949386 C75.1969889,361.777098 75.2906333,400.889882 75.4511667,403.607163 L121.156344,403.607163" id="Fill-153" fill="#255654"></path>
                    <path d="M588.238111,341.936261 C588.388611,339.459922 588.465533,303.89098 588.465533,301.314248 C588.465533,273.080627 579.060956,250.191216 567.452389,250.191216 C555.843822,250.191216 546.439244,273.080627 546.439244,301.314248 C546.439244,303.89098 546.516167,339.459922 546.666667,341.936261 L588.238111,341.936261" id="Fill-154" fill="#366866"></path>
                    <path d="M556.770233,391.590222 C556.954178,388.692235 557.047822,347.019451 557.047822,344.000993 C557.047822,310.921778 546.021189,284.107033 532.426022,284.107033 C518.827511,284.107033 507.800878,310.921778 507.800878,344.000993 C507.800878,347.019451 507.897867,388.692235 508.068433,391.590222 L556.770233,391.590222" id="Fill-155" fill="#2E6260"></path>
                    <path d="M521.747211,398.420235 C521.931156,395.522248 522.021456,353.849464 522.021456,350.831007 C522.021456,317.751791 510.994822,290.937046 497.403,290.937046 C483.801144,290.937046 472.774511,317.751791 472.774511,350.831007 C472.774511,353.849464 472.874844,395.522248 473.042067,398.420235 L521.747211,398.420235" id="Fill-156" fill="#366839"></path>
                    <path d="M277.198089,377.883346 C277.348589,375.413699 277.425511,339.838065 277.425511,337.261333 C277.425511,309.034405 268.020933,286.138301 256.412367,286.138301 C244.8038,286.138301 235.399222,309.034405 235.399222,337.261333 C235.399222,339.838065 235.476144,375.413699 235.626644,377.883346 L277.198089,377.883346" id="Fill-157" fill="#366839"></path>
                    <path d="M184.827878,377.883346 C184.978378,375.413699 185.0553,339.838065 185.0553,337.261333 C185.0553,309.034405 175.647378,286.138301 164.042156,286.138301 C152.433589,286.138301 143.029011,309.034405 143.029011,337.261333 C143.029011,339.838065 143.105933,375.413699 143.256433,377.883346 L184.827878,377.883346" id="Fill-158" fill="#366839"></path>
                    <polyline id="Fill-159" fill="#8396C0" points="119.099511 271.792261 256.412367 430.321516 80.8758556 412.960366 89.3841222 352.490824 119.099511 271.792261"></polyline>
                    <polyline id="Fill-159-Copy" fill="#8396C0" opacity="0.375233209" points="39.0995111 351.792261 176.412367 510.321516 0.875855556 492.960366 9.38412222 432.490824 39.0995111 351.792261"></polyline>
                    <path d="M222.934478,209.522353 C222.248867,199.329203 213.784078,191.274405 203.422989,191.274405 C201.5802,191.274405 199.8043,191.54881 198.112011,192.020654 C198.1187,191.766327 198.152144,191.528732 198.152144,191.274405 C198.152144,176.928366 186.5302,165.302954 172.192567,165.302954 C157.854933,165.302954 146.236333,176.928366 146.236333,191.274405 C146.236333,191.458458 146.259744,191.629124 146.259744,191.80983 C144.791533,191.471843 143.263122,191.274405 141.694578,191.274405 C131.186333,191.274405 122.554322,199.282353 121.564367,209.522353 L222.934478,209.522353" id="Fill-160" fill="#6674A9"></path>
                    <polygon id="Fill-161" fill="#64A1B9" points="284.134467 386.982222 427.644578 386.982222 427.644578 258.982222 284.134467 258.982222"></polygon>
                    <path d="M256.562867,438.282614 C257.268544,433.503948 257.646467,428.61485 257.646467,423.635399 C257.646467,369.015373 213.386089,324.719007 158.794722,324.719007 C104.200011,324.719007 59.9396333,369.015373 59.9396333,423.635399 C59.9396333,428.61485 60.3175556,433.503948 61.0232333,438.282614 L256.562867,438.282614" id="Fill-162" fill="#3D8066"></path>
                    <path d="M402.059578,447.635817 C402.745189,443.001046 403.109733,438.269229 403.109733,433.450405 C403.109733,380.57051 360.260711,337.69302 307.408456,337.69302 C254.5562,337.69302 211.707178,380.57051 211.707178,433.450405 C211.707178,438.269229 212.071722,443.001046 212.757333,447.635817 L402.059578,447.635817" id="Fill-163" fill="#3D8080"></path>
                    <path d="M531.375867,441.950275 C532.061478,437.322196 532.426022,432.590379 532.426022,427.771556 C532.426022,374.888314 489.570311,332.01417 436.724744,332.01417 C383.872489,332.01417 341.023467,374.888314 341.023467,427.771556 C341.023467,432.590379 341.381322,437.322196 342.073622,441.950275 L531.375867,441.950275" id="Fill-164" fill="#3D6C80"></path>
                    <path d="M641.087022,439.443817 C641.775978,434.819085 642.140522,430.087268 642.140522,425.261752 C642.140522,372.37851 599.281467,329.504366 546.439244,329.504366 C493.586989,329.504366 450.734622,372.37851 450.734622,425.261752 C450.734622,430.087268 451.095822,434.819085 451.788122,439.443817 L641.087022,439.443817" id="Fill-165" fill="#3D806E"></path>
                    <polyline id="Fill-168" fill="#19334B" points="348.906322 370.882667 325.130667 354.45851 370.972967 288.01898 394.748622 304.446484 348.906322 370.882667"></polyline>
                    <path d="M500.372867,302.425255 L497.048489,264.13234 L419.427278,274.425882 C408.631411,275.858144 400.698389,285.274928 401.1131,296.170824 L403.601367,361.934379 L431.922122,360.629281 L429.480678,307.538562 L500.372867,302.425255" id="Fill-169" fill="#B8BEAE"></path>
                    <path d="M432.647867,379.014431 L384.7086,381.601203 L384.695222,381.413804 C384.140044,371.106876 393.337267,362.228863 405.240144,361.589699 L431.631156,360.170824 L432.647867,379.014431" id="Fill-170" fill="#9D2929"></path>
                    <polyline id="Fill-171" fill="#5D1C1D" points="419.433967 379.720523 432.647867 379.014431 431.631156 360.170824 418.283478 360.890301 419.433967 379.720523"></polyline>
                    <polyline id="Fill-172" fill="#342F37" points="506.924633 358.112784 502.1889 369.81851 269.6664 369.81851 180.279433 321.26217 176.262756 328.667765 267.535989 378.234719 506.924633 378.234719 506.924633 358.112784"></polyline>
                    <path d="M268.014244,354.080366 C257.522722,354.080366 248.991044,362.613699 248.991044,373.111373 C248.991044,383.609046 257.522722,392.159111 268.014244,392.159111 C278.509111,392.159111 287.040789,383.609046 287.040789,373.111373 C287.040789,362.613699 278.509111,354.080366 268.014244,354.080366 Z M268.014244,400.582013 C252.883978,400.582013 240.573078,388.257203 240.573078,373.111373 C240.573078,357.968889 252.883978,345.654118 268.014244,345.654118 C283.147856,345.654118 295.4621,357.968889 295.4621,373.111373 C295.4621,376.190065 294.957089,379.16502 294.0173,381.92915 C290.331722,392.758118 280.070967,400.582013 268.014244,400.582013 L268.014244,400.582013 Z" id="Fill-173" fill="#2D2E2C"></path>
                    <path d="M384.133356,209.910536 C380.1033,207.855843 375.153522,209.472157 373.096689,213.517961 C373.003044,213.698667 363.257333,232.498771 346.143811,231.956654 C328.545344,231.40115 317.214367,216.208471 317.214367,216.208471 L315.966889,214.649046 C315.017067,213.457725 313.301367,213.270327 312.110744,214.217359 L312.090678,214.237438 C310.9937,215.104157 310.772967,216.653542 311.512089,217.804706 C311.492022,217.818092 311.471956,217.818092 311.4452,217.824784 C310.478656,216.864366 308.943556,216.760627 307.853267,217.620654 L307.806444,217.66081 C306.6894,218.557647 306.475356,220.163922 307.2914,221.321778 C307.284711,221.335163 307.278022,221.348549 307.271333,221.361935 C306.318167,220.301124 304.696111,220.150536 303.572378,221.054065 L303.548967,221.067451 C302.365033,222.014484 302.1744,223.737882 303.117533,224.92251 L304.365011,226.485281 L306.224522,228.811033 C306.224522,228.811033 316.227756,240.797856 328.311233,245.178301 C333.150644,246.915085 338.893056,248.163294 345.622078,248.38081 C373.063244,249.244183 387.153389,222.111529 387.738667,220.953673 C389.792156,216.904523 388.176789,211.961882 384.133356,209.910536" id="Fill-174" fill="#D57D41"></path>
                    <polygon id="Fill-175" fill="#342F37" points="178.276111 302.231163 526.299 302.231163 526.299 295.230484 178.276111 295.230484"></polygon>
                    <path d="M340.929822,382.588392 L307.408456,359.444654 L307.538889,359.263948 C314.3649,349.361935 326.6457,346.002144 334.966678,351.744575 L353.421322,364.491033 L340.929822,382.588392" id="Fill-176" fill="#E36A2A"></path>
                    <path d="M383.528011,211.817987 C379.280567,209.150902 373.645178,210.439268 370.979656,214.705935 C370.919456,214.81302 367.752267,219.779085 362.250656,224.450667 L372.735489,239.365595 C381.2471,232.498771 386.043033,224.982745 386.427644,224.373699 C389.093167,220.10034 387.792178,214.485072 383.528011,211.817987" id="Fill-177" fill="#545274"></path>
                    <polyline id="Fill-178" fill="#342F37" points="286.294978 368.647268 293.428678 373.118065 339.297733 299.811712 332.157344 295.340915 286.294978 368.647268"></polyline>
                    <polyline id="Fill-179" fill="#342F37" points="381.063156 368.647268 388.203544 373.118065 434.0726 299.811712 426.9389 295.340915 381.063156 368.647268"></polyline>
                    <polyline id="Fill-180" fill="#C8392B" points="353.421322 364.491033 344.458211 376.856 332.013533 367.844131 342.772611 357.13898 353.421322 364.491033"></polyline>
                    <polygon id="Fill-181" fill="#2F3137" points="503.2725 446.380915 511.693811 446.380915 511.693811 304.764392 503.2725 304.764392"></polygon>
                    <polygon id="Fill-182" fill="#2F3137" points="436.718056 379.784105 578.248256 379.784105 578.248256 371.361203 436.718056 371.361203"></polygon>
                    <polyline id="Fill-183" fill="#2F3137" points="460.423478 428.61485 454.467022 422.661595 554.542833 322.530458 560.502633 328.483712 460.423478 428.61485"></polyline>
                    <polyline id="Fill-184" fill="#2F3137" points="554.542833 428.61485 454.467022 328.483712 460.423478 322.530458 560.502633 422.661595 554.542833 428.61485"></polyline>
                    <path d="M507.4865,307.294275 C470.710989,307.294275 440.788244,337.237908 440.788244,374.028288 C440.788244,410.825359 470.710989,440.765647 507.4865,440.765647 C544.255322,440.765647 574.181411,410.825359 574.181411,374.028288 C574.181411,337.237908 544.255322,307.294275 507.4865,307.294275 Z M507.4865,451.992837 C464.520422,451.992837 429.564289,417.019556 429.564289,374.028288 C429.564289,331.033673 464.520422,296.060392 507.4865,296.060392 C550.449233,296.060392 585.408711,331.033673 585.408711,374.028288 C585.408711,417.019556 550.449233,451.992837 507.4865,451.992837 L507.4865,451.992837 Z" id="Fill-185" fill="#293040"></path>
                    <path d="M518.998078,397.603712 L481.921567,428.119582 L481.797822,427.968993 C475.246056,420.001203 477.399878,407.398641 486.603789,399.819033 L507.018278,383.026771 L518.998078,397.603712" id="Fill-186" fill="#D13E35"></path>
                    <path d="M521.225478,375.085752 C521.225478,382.27383 515.4028,388.093229 508.225622,388.093229 C501.0451,388.093229 495.225767,382.27383 495.225767,375.085752 C495.225767,367.904366 501.0451,362.084967 508.225622,362.084967 C515.4028,362.084967 521.225478,367.904366 521.225478,375.085752" id="Fill-187" fill="#15495C"></path>
                    <polyline id="Fill-188" fill="#9A2728" points="496.322744 391.831163 508.108567 406.562039 518.998078 397.603712 507.018278 383.026771 496.322744 391.831163"></polyline>
                    <path d="M512.857678,375.085752 C512.857678,377.655791 510.784122,379.720523 508.225622,379.720523 C505.657089,379.720523 503.593567,377.655791 503.593567,375.085752 C503.593567,372.522405 505.657089,370.45098 508.225622,370.45098 C510.784122,370.45098 512.857678,372.522405 512.857678,375.085752" id="Fill-189" fill="#0A0B09"></path>
                    <path d="M551.292033,301.682353 L512.600156,301.682353 L512.600156,288.01898 L551.292033,288.01898 C555.021089,288.01898 558.044467,291.047477 558.044467,294.778719 L558.044467,294.915922 C558.044467,298.653856 555.021089,301.682353 551.292033,301.682353" id="Fill-190" fill="#0A0B09"></path>
                    <path d="M526.299,296.34149 L483.744289,276.875451 L445.490533,324.725699 C437.918711,332.569673 437.547478,344.884444 444.627667,353.156758 L487.426522,403.138667 L508.814244,384.505882 L473.918311,344.419294 L526.299,296.34149" id="Fill-191" fill="#E2E7C5"></path>
                    <path d="M508.814244,384.505882 L473.918311,344.419294 L526.299,296.34149 L495.279278,282.152732 L462.918433,322.627503 C455.3533,330.458092 454.975378,342.779556 462.062256,351.051869 L498.439778,393.544523 L508.814244,384.505882" id="Fill-192" fill="#B8BEAE"></path>
                    <path d="M497.389622,195.551111 C492.914756,193.667085 487.747589,195.778667 485.871356,200.26285 C485.781056,200.47702 476.851389,221.328471 458.503767,222.091451 C439.651133,222.877856 426.350278,207.531242 426.350278,207.531242 L424.895444,205.961778 C423.791778,204.767111 421.935611,204.69349 420.741644,205.804497 L420.721578,205.824575 C419.6246,206.845229 419.500856,208.511739 420.380444,209.686327 C420.353689,209.699712 420.336967,209.699712 420.3169,209.706405 C419.206544,208.766065 417.554389,208.766065 416.454067,209.780026 L416.410589,209.823529 C415.280167,210.870954 415.183178,212.601046 416.143033,213.77898 C416.143033,213.792366 416.136344,213.805752 416.129656,213.819137 C415.025989,212.758327 413.280189,212.724863 412.149767,213.77898 L412.123011,213.792366 C410.935733,214.903373 410.8655,216.760627 411.969167,217.955294 L413.424,219.524758 L415.594544,221.857203 C415.594544,221.857203 427.226522,233.897569 440.487244,237.622118 C445.784844,239.111268 452.028922,239.988026 459.232856,239.680157 C488.633867,238.458719 501.570178,208.354458 502.105289,207.072784 C503.978178,202.581908 501.867833,197.425098 497.389622,195.551111" id="Fill-193" fill="#EEA169"></path>
                    <polyline id="Fill-194" fill="#EEA169" points="520.329167 185.204026 499.466522 193.707242 490.633844 172.012497 511.503178 163.509281 520.329167 185.204026"></polyline>
                    <path d="M524.600022,149.661856 C519.302422,167.130092 495.239144,181.740497 481.306189,175.412444 C466.831433,168.836758 466.269567,151.020497 471.573856,133.542222 C476.884833,116.073987 493.051878,105.509386 507.6972,109.966797 C522.342522,114.420863 529.911,132.190275 524.600022,149.661856" id="Fill-195" fill="#F5C187"></path>
                    <path d="M485.403133,134.72685 C484.677389,137.340392 482.978411,139.144105 481.607189,138.765961 C480.242656,138.387817 479.717578,135.95498 480.450011,133.341438 C481.175756,130.727895 482.874733,128.91749 484.245956,129.302327 C485.610489,129.680471 486.132222,132.113307 485.403133,134.72685" id="Fill-196" fill="#2D2E2C"></path>
                    <path d="M508.095189,105.760366 C500.570189,103.471425 485.389756,102.430693 475.945044,110.974065 C480.346333,124.928575 501.894589,138.484863 516.586733,141.001359 C511.269067,147.734327 508.068433,156.224157 508.068433,165.470275 C508.068433,167.217098 508.218933,168.930458 508.432978,170.613699 C515.690422,166.490928 521.747211,159.105412 524.600022,149.661856 C529.911,132.190275 522.7472,110.211085 508.095189,105.760366" id="Fill-197" fill="#54321D"></path>
                    <path d="M522.068278,147.339451 C522.068278,151.197856 518.937878,154.326745 515.085078,154.326745 C511.222244,154.326745 508.095189,151.197856 508.095189,147.339451 C508.095189,143.477699 511.222244,140.34881 515.085078,140.34881 C518.937878,140.34881 522.068278,143.477699 522.068278,147.339451" id="Fill-198" fill="#F5C187"></path>
                    <path d="M570.790144,148.641203 L568.255056,149.544732 C549.934189,156.033412 529.8207,146.439268 523.332478,128.104314 L523.158567,127.59566 C519.697067,117.824157 524.804033,107.098928 534.569811,103.642092 L534.920978,103.518275 C544.686756,100.061438 555.4057,105.171399 558.860511,114.936209 L570.790144,148.641203" id="Fill-199" fill="#54321D"></path>
                    <path d="M484.878056,273.247948 L532.706956,284.301124 C537.710244,247.229647 533.098256,205.961778 532.864144,203.987399 C531.165167,189.196288 518.978011,178.752157 505.630333,180.622797 C492.286,182.490092 482.841289,196.012915 484.5202,210.797333 C485.707478,221.295007 487.617156,249.685908 484.878056,273.247948" id="Fill-200" fill="#CC3F70"></path>
                    <polyline id="Fill-201" fill="#E2E7C5" points="484.878056 273.247948 532.706956 284.301124 526.299 296.34149 481.928256 279.02719 484.878056 273.247948"></polyline>
                    <path d="M302.712856,264.13234 L240.011211,264.13234 C223.496344,264.13234 210.105189,277.524654 210.105189,294.039163 L210.105189,350.981595 L243.864011,350.981595 L243.864011,297.629856 L302.712856,297.629856 L302.712856,264.13234" id="Fill-202" fill="#B74B2C"></path>
                    <path d="M273.061011,188.346301 C266.151389,187.486275 259.827044,192.412183 258.977556,199.339242 C258.934078,199.660497 254.666567,231.943268 229.623367,240.118536 C203.881178,248.524706 179.543656,232.472 179.543656,232.472 L176.9283,230.869072 C174.938356,229.654327 172.343067,230.283451 171.129033,232.267869 L171.108967,232.301333 C169.978544,234.13851 170.470178,236.491033 172.135711,237.779399 C172.108956,237.799477 172.075511,237.812863 172.048756,237.829595 C170.1558,236.956183 167.861511,237.602039 166.744467,239.42583 L166.700989,239.496105 C165.5505,241.386824 166.078922,243.816314 167.8682,245.077908 C167.861511,245.091294 167.861511,245.118065 167.854822,245.131451 C165.921733,244.097412 163.507044,244.733229 162.343178,246.627294 L162.316422,246.660758 C161.102389,248.648523 161.7278,251.241987 163.7144,252.460078 L166.3331,254.066353 L170.239411,256.45234 C170.239411,256.45234 190.971622,268.569673 210.747322,268.569673 C218.650244,268.569673 227.606667,267.361621 237.449367,264.145725 C277.602767,251.03451 283.800022,204.419085 284.044167,202.438013 C284.893656,195.510954 279.980667,189.20298 273.061011,188.346301" id="Fill-203" fill="#EEA169"></path>
                    <path d="M237.502878,264.13234 C277.602767,251.007739 283.800022,204.419085 284.044167,202.438013 C284.893656,195.510954 279.980667,189.20298 273.061011,188.346301 C266.151389,187.486275 259.827044,192.412183 258.977556,199.339242 C258.934078,199.653804 254.830444,230.587974 231.158467,239.55634 L237.502878,264.13234" id="Fill-204" fill="#255654"></path>
                    <path d="M271.121233,264.76481 L348.304322,276.875451 C353.230689,217.96868 347.337778,212.805176 342.401378,203.217725 C333.725889,186.385307 310.027156,177.744889 289.666178,183.765072 C269.311889,189.785255 263.663122,205.941699 266.629644,222.693804 C269.221589,237.320941 271.867044,243.910013 271.121233,264.76481" id="Fill-205" fill="#366866"></path>
                    <path d="M302.856667,195.845595 L302.575733,195.845595 C295.037356,195.845595 288.9304,189.731712 288.9304,182.185569 L288.9304,167.06651 L316.502,167.06651 L316.502,182.185569 C316.502,189.731712 310.395044,195.845595 302.856667,195.845595" id="Fill-206" fill="#D58D58"></path>
                    <path d="M335.260989,152.43268 C337.267656,145.328261 337.488389,137.614797 335.451622,129.954876 C331.210867,114.019294 318.468533,102.648209 303.411844,99.3419608 L295.682833,152.43268 L335.260989,152.43268" id="Fill-207" fill="#34281A"></path>
                    <path d="M325.241033,95.2493072 C320.863156,93.7266928 316.180933,92.8633203 311.281322,92.8633203 C287.779911,92.8633203 268.726611,111.927791 268.726611,135.446327 C268.726611,151.940758 278.111122,166.20983 291.816656,173.287477 L325.241033,95.2493072" id="Fill-208" fill="#34281A"></path>
                    <path d="M339.050244,151.087425 C339.050244,154.353516 336.411478,156.99383 333.143956,156.99383 C329.886467,156.99383 327.241011,154.353516 327.241011,151.087425 C327.241011,147.831373 329.886467,145.177673 333.143956,145.177673 C336.411478,145.177673 339.050244,147.831373 339.050244,151.087425" id="Fill-209" fill="#EEA169"></path>
                    <path d="M333.143956,147.667399 C333.143956,164.483085 319.518689,178.119686 302.712856,178.119686 C285.910367,178.119686 272.2851,164.483085 272.2851,147.667399 C272.2851,130.84502 285.910367,117.215111 302.712856,117.215111 C319.518689,117.215111 333.143956,130.84502 333.143956,147.667399" id="Fill-210" fill="#EEA169"></path>
                    <path d="M297.806556,137.139608 C297.806556,139.803346 296.5457,141.961778 294.997222,141.961778 C293.448744,141.961778 292.194578,139.803346 292.194578,137.139608 C292.194578,134.472523 293.448744,132.314092 294.997222,132.314092 C296.5457,132.314092 297.806556,134.472523 297.806556,137.139608" id="Fill-211" fill="#2D2E2C"></path>
                    <path d="M318.147467,137.139608 C318.147467,139.803346 316.8933,141.961778 315.344822,141.961778 C313.789656,141.961778 312.542178,139.803346 312.542178,137.139608 C312.542178,134.472523 313.789656,132.314092 315.344822,132.314092 C316.8933,132.314092 318.147467,134.472523 318.147467,137.139608" id="Fill-212" fill="#2D2E2C"></path>
                    <path d="M286.970556,156.883399 C289.060833,163.589595 295.324978,168.465307 302.712856,168.465307 C310.107422,168.465307 316.371567,163.589595 318.461844,156.883399 L286.970556,156.883399" id="Fill-213" fill="#FFFFFE"></path>
                    <path d="M348.304322,276.875451 L348.304322,277.106353 C348.304322,290.341386 340.030167,302.164235 327.592178,306.688575 L293.298244,319.157281 L313.900022,362.797752 L284.141156,379.178405 L258.693278,329.511059 C250.6131,313.726065 257.305333,294.38719 273.422211,287.001673 L308.859944,270.744837 L348.304322,276.875451" id="Fill-214" fill="#E15D29"></path>
                    <path d="M326.953389,190.949804 C320.431722,193.406065 317.1341,200.701229 319.6023,207.230065 C319.7227,207.537935 330.963378,238.100654 312.602378,257.00115 C293.722989,276.433725 264.726656,273.56251 264.726656,273.56251 L261.656456,273.361725 C259.332067,273.204444 257.3254,274.974693 257.1749,277.293752 L257.168211,277.333908 C257.0244,279.49234 258.556156,281.346248 260.626367,281.70766 C260.612989,281.734431 260.592922,281.764549 260.579544,281.79132 C258.495956,281.895059 256.763533,283.538144 256.626411,285.67315 L256.619722,285.760157 C256.475911,287.968784 258.084589,289.86285 260.2451,290.150641 C260.2451,290.170719 260.258478,290.190797 260.265167,290.210876 C258.071211,290.190797 256.221733,291.884078 256.084611,294.099399 L256.077922,294.139556 C255.927422,296.465307 257.6866,298.47315 260.010989,298.627085 L263.081189,298.824523 L267.639667,299.119007 C267.639667,299.119007 291.626022,300.176471 309.1275,290.967163 C316.120733,287.289464 323.491889,282.045647 330.7092,274.616627 C360.143656,244.314928 343.936478,200.165804 343.2308,198.295163 C340.7626,191.77302 333.4784,188.47681 326.953389,190.949804" id="Fill-215" fill="#F5C187"></path>
                    <path d="M330.742644,274.576471 C360.130278,244.281464 343.936478,200.165804 343.2308,198.295163 C340.7626,191.77302 333.4784,188.47681 326.953389,190.949804 C320.431722,193.406065 317.1341,200.701229 319.6023,207.230065 C319.716011,207.531242 330.478433,236.81898 313.692667,255.786405 L330.742644,274.576471" id="Fill-216" fill="#439A86"></path>
                    <path d="M244.124878,371.829699 L191.510078,372.348392 L191.503389,372.130876 C191.389678,360.100549 201.8812,350.248732 214.9446,350.131608 L243.910833,349.843817 L244.124878,371.829699" id="Fill-217" fill="#EAC88C"></path>
                    <path d="M369.5683,280.713778 L413.628011,289.909699 C418.246689,259.072575 413.985867,224.751843 413.778511,223.118797 C412.209967,210.817412 400.975978,202.130144 388.6818,203.679529 C376.387622,205.235608 367.678689,216.479529 369.233856,228.777569 C370.330833,237.518379 372.083322,261.117229 369.5683,280.713778" id="Fill-218" fill="#ECE1E8"></path>
                    <path d="M413.654767,289.993359 L369.5081,280.342327 L366.424522,294.47085 L366.531544,294.634824 C373.063244,305.112418 374.367578,318.032889 370.0499,329.608105 L350.324367,382.561621 L377.400989,392.661072 L406.694978,314.027242 C409.597956,306.23681 411.908967,298.248941 413.621322,290.117176 L413.654767,289.993359" id="Fill-219" fill="#545274"></path>
                    <polyline id="Fill-220" fill="#342F37" points="321.411644 423.909804 283.559222 423.909804 264.676489 375.015477 272.5259 371.973595 289.335078 415.483556 321.411644 415.483556 321.411644 423.909804"></polyline>
                    <path d="M277.171333,372.348392 C277.171333,377.40481 273.074389,381.504157 268.020933,381.504157 C262.964133,381.504157 258.867189,377.40481 258.867189,372.348392 C258.867189,367.288627 262.964133,363.189281 268.020933,363.189281 C273.074389,363.189281 277.171333,367.288627 277.171333,372.348392" id="Fill-221" fill="#2D2E2C"></path>
                    <polyline id="Fill-222" fill="#342F37" points="182.971711 378.542588 174.543711 378.616209 173.577167 248.655216 181.998478 248.59498 182.971711 378.542588"></polyline>
                    <polygon id="Fill-223" fill="#342F37" points="135.607689 257.054693 222.686989 257.054693 222.686989 248.59498 135.607689 248.59498"></polygon>
                    <path d="M304.0707,74.1201046 L309.8198,74.1201046 C308.813122,59.4661961 296.642689,47.8842876 281.749878,47.8842876 C279.097733,47.8842876 276.542578,48.2691242 274.114511,48.9484444 C274.127889,48.5903791 274.171367,48.2423529 274.171367,47.8842876 C274.171367,27.2436601 257.462522,10.5317124 236.840678,10.5317124 C216.232211,10.5317124 199.516678,27.2436601 199.516678,47.8842876 C199.516678,48.1386144 199.550122,48.3929412 199.556811,48.647268 C197.439778,48.1586928 195.245822,47.8842876 192.978289,47.8842876 C177.881467,47.8842876 165.476922,59.3925752 164.042156,74.1201046 L304.0707,74.1201046" id="Fill-224" fill="#FFFFFE"></path>
                    <path d="M469.436756,44.7855163 C468.737767,34.5890196 460.279667,26.5375686 449.911889,26.5375686 C448.075789,26.5375686 446.299889,26.805281 444.6076,27.2771242 C444.620978,27.0261438 444.647733,26.7852026 444.647733,26.5375686 C444.647733,12.1848366 433.025789,0.556078431 418.688156,0.556078431 C404.357211,0.556078431 392.731922,12.1848366 392.731922,26.5375686 C392.731922,26.7149281 392.751989,26.8889412 392.755333,27.0729935 C391.287122,26.7249673 389.7654,26.5375686 388.190167,26.5375686 C377.681922,26.5375686 369.059944,34.5421699 368.053267,44.7855163 L469.436756,44.7855163" id="Fill-225" fill="#6674A9"></path>
                    <polyline id="Fill-226" fill="#6F5227" points="225.2087 350.021176 225.2087 371.829699 244.124878 371.829699 243.910833 349.843817 225.2087 350.021176"></polyline>
                    <polygon id="Fill-227" fill="#2F3137" points="174.0688 446.380915 182.480078 446.380915 182.480078 304.764392 174.0688 304.764392"></polygon>
                    <polygon id="Fill-228" fill="#2F3137" points="107.511011 379.784105 249.044556 379.784105 249.044556 371.361203 107.511011 371.361203"></polygon>
                    <polyline id="Fill-229" fill="#2F3137" points="131.209744 428.61485 125.259978 422.661595 225.339133 322.530458 231.2889 328.483712 131.209744 428.61485"></polyline>
                    <polyline id="Fill-230" fill="#2F3137" points="225.339133 428.61485 125.259978 328.483712 131.209744 322.530458 231.2889 422.661595 225.339133 428.61485"></polyline>
                    <path d="M191.272622,375.577673 C191.272622,382.759059 185.4466,388.581804 178.276111,388.581804 C171.095589,388.581804 165.269567,382.759059 165.269567,375.577673 C165.269567,368.386248 171.095589,362.570196 178.276111,362.570196 C185.4466,362.570196 191.272622,368.386248 191.272622,375.577673" id="Fill-231" fill="#15495C"></path>
                    <path d="M184.296111,375.577673 C184.296111,378.904 181.600489,381.601203 178.276111,381.601203 C174.945044,381.601203 172.246078,378.904 172.246078,375.577673 C172.246078,372.241307 174.945044,369.550797 178.276111,369.550797 C181.600489,369.550797 184.296111,372.241307 184.296111,375.577673" id="Fill-232" fill="#0A0B09"></path>
                    <path d="M178.276111,307.294275 C141.5006,307.294275 111.574511,337.237908 111.574511,374.028288 C111.574511,410.825359 141.5006,440.765647 178.276111,440.765647 C215.051622,440.765647 244.967678,410.825359 244.967678,374.028288 C244.967678,337.237908 215.051622,307.294275 178.276111,307.294275 Z M178.276111,451.992837 C135.306689,451.992837 100.3539,417.019556 100.3539,374.028288 C100.3539,331.033673 135.306689,296.060392 178.276111,296.060392 C221.242189,296.060392 256.194978,331.033673 256.194978,374.028288 C256.194978,417.019556 221.242189,451.992837 178.276111,451.992837 L178.276111,451.992837 Z" id="Fill-233" fill="#293040"></path>
                    <path d="M399.996056,223.440052 C395.487744,221.224732 390.026267,223.105412 387.818933,227.623059 C387.715256,227.837229 377.237111,248.849307 358.233978,248.551477 C338.709111,248.236915 325.879822,231.588549 325.879822,231.588549 L324.465122,229.871843 C323.398244,228.576784 321.485222,228.392732 320.184233,229.456889 L320.164167,229.48366 C318.963511,230.47085 318.749467,232.190902 319.585578,233.45919 C319.558822,233.465882 319.538756,233.472575 319.512,233.479268 C318.421711,232.438536 316.716044,232.334797 315.522078,233.321987 L315.475256,233.358797 C314.247844,234.379451 314.037144,236.156392 314.960211,237.438065 C314.953522,237.451451 314.946833,237.458144 314.940144,237.471529 C313.863233,236.313673 312.067267,236.176471 310.829822,237.197124 L310.8131,237.21051 C309.512111,238.281359 309.328167,240.195503 310.398389,241.497255 L311.809744,243.210614 L313.9134,245.753882 C313.9134,245.753882 325.214278,258.88183 338.695733,263.516601 C344.093667,265.373856 350.481556,266.655529 357.946356,266.772654 C388.400867,267.254536 403.554544,236.909333 404.179956,235.614275 C406.390633,231.099974 404.5144,225.641987 399.996056,223.440052" id="Fill-234" fill="#EB9166"></path>
                    <path d="M400.430833,222.616837 C395.658311,220.281046 389.875767,222.26881 387.531311,227.060863 C387.4778,227.171294 384.688533,232.759791 379.417689,238.288052 L392.109856,252.838222 C400.313778,244.659608 404.527778,236.209935 404.868911,235.523922 C407.199989,230.731869 405.220078,224.955974 400.430833,222.616837" id="Fill-235" fill="#545274"></path>
                    <path d="M390.581444,216.988183 L390.3975,217.035033 C385.394211,218.169464 380.541422,215.602771 379.5615,211.295948 L377.079922,200.373281 L395.390756,196.20366 L397.879022,207.126327 C398.852256,211.439843 395.584733,215.857098 390.581444,216.988183" id="Fill-236" fill="#D57D41"></path>
                    <path d="M355.531667,173.950065 C352.899589,186.94081 361.284111,199.62034 374.277278,202.264 C387.263756,204.911007 399.929167,196.511529 402.567933,183.510745 C405.213389,170.509961 396.818833,157.837124 383.8357,155.19681 C370.842533,152.556497 358.170433,160.955974 355.531667,173.950065" id="Fill-237" fill="#EEA169"></path>
                    <path d="M386.621622,170.884758 C386.119956,173.622118 384.631678,175.64 383.297244,175.392366 C381.966156,175.144732 381.293922,172.725281 381.7889,170.001307 C382.287222,167.267294 383.7755,165.249412 385.113278,165.490353 C386.447711,165.734641 387.119944,168.150745 386.621622,170.884758" id="Fill-238" fill="#2D2E2C"></path>
                    <path d="M373.277289,168.438536 C372.775622,171.172549 371.294033,173.190431 369.9596,172.94949 C368.628511,172.701856 367.949589,170.289098 368.444567,167.555085 C368.946233,164.824418 370.437856,162.809882 371.768944,163.05417 C373.103378,163.295111 373.7823,165.714562 373.277289,168.438536" id="Fill-239" fill="#2D2E2C"></path>
                    <path d="M362.4346,180.582641 C362.832589,186.790222 367.203778,192.288366 373.558222,193.831059 C379.9227,195.367059 386.323967,192.485804 389.517911,187.144941 L362.4346,180.582641" id="Fill-240" fill="#FFFFFE"></path>
                    <path d="M407.246811,158.041255 L407.246811,151.033882 L400.935844,152.205124 L399.996056,142.851922 L392.514533,146.211712 L386.297211,134.392209 L380.691922,156.458405 C390.5179,159.563869 397.153278,168.60251 397.414144,178.701961 L404.320422,187.03451 L414.026,160.162876 L407.246811,158.041255" id="Fill-241" fill="#774B2C"></path>
                    <path d="M410.517678,184.313882 C410.517678,187.740601 407.748478,190.518118 404.320422,190.518118 C400.895711,190.518118 398.119822,187.740601 398.119822,184.313882 C398.119822,180.89051 400.895711,178.119686 404.320422,178.119686 C407.748478,178.119686 410.517678,180.89051 410.517678,184.313882" id="Fill-242" fill="#EEA169"></path>
                    <path d="M380.631722,156.485176 L380.691922,156.458405 L386.297211,134.392209 L379.053144,143.778876 L377.079922,136.995712 L370.8626,149.688627 L365.615167,145.418614 L359.187144,165.256105 C364.414511,159.262693 372.297367,155.230275 380.631722,156.485176" id="Fill-243" fill="#774B2C"></path>
                    <path d="M406.694978,314.027242 C409.597956,306.23681 411.908967,298.248941 413.621322,290.117176 L413.654767,289.993359 L396.434222,286.228654 L395.925867,286.215268 L366.554956,380.18902 L379.511333,386.982222 L406.694978,314.027242" id="Fill-244" fill="#6A708D"></path>
                    <path d="M373.350867,404.564235 L335.207478,390.248314 L335.287744,390.040837 C339.508433,378.786876 350.6053,372.529098 360.070078,376.086327 L381.063156,383.960418 L373.350867,404.564235" id="Fill-245" fill="#EA862D"></path>
                    <polyline id="Fill-246" fill="#DE4E2A" points="375.193656 400.02651 381.063156 383.960418 367.113478 378.719948 361.227256 394.779346 375.193656 400.02651"></polyline>
                    <path d="M324.3581,380.051817 L277.111133,407.857098 L277.000767,407.666353 C270.907189,397.309229 275.472356,383.301176 287.204667,376.400889 L313.214411,361.091085 L324.3581,380.051817" id="Fill-247" fill="#FBDEC1"></path>
                    <polyline id="Fill-248" fill="#6F5227" points="321.943411 375.942431 297.452044 390.157961 289.569189 375.015477 313.214411 361.091085 321.943411 375.942431"></polyline>
                    <path d="M514.867689,198.904209 C509.178789,198.623111 504.319311,203.020288 504.045067,208.725908 C504.031689,208.993621 502.523344,235.607582 482.573733,243.816314 C462.075633,252.242562 441.233056,240.633882 441.233056,240.633882 L438.992278,239.486065 C437.299989,238.609307 435.2164,239.281935 434.346844,240.975216 L434.326778,241.00868 C433.524111,242.574797 434.059222,244.465516 435.497333,245.412549 C435.483956,245.432627 435.4572,245.446013 435.437133,245.466092 C433.838489,244.863739 432.002389,245.529673 431.206411,247.085752 L431.172967,247.15268 C430.343544,248.765647 430.932167,250.713255 432.467267,251.633516 C432.460578,251.646902 432.460578,251.660288 432.460578,251.680366 C430.818456,250.954196 428.878678,251.616784 428.049256,253.229752 L428.029189,253.263216 C427.162978,254.96319 427.828522,257.048 429.5275,257.914719 L431.761589,259.065882 L435.099344,260.779242 C435.099344,260.779242 452.761356,269.399582 468.901644,268.184837 C475.349733,267.706301 482.587111,266.176993 490.433178,262.954405 C522.399378,249.799686 524.6134,211.359529 524.693667,209.726484 C524.967911,204.020863 520.569967,199.171922 514.867689,198.904209" id="Fill-249" fill="#F5C187"></path>
                    <polyline id="Fill-250" fill="#777C70" points="508.362744 294.848993 487.0486 315.864418 496.466556 325.431791 518.5332 305.176 508.362744 294.848993"></polyline>
                    <path d="M517.325856,154.714928 C517.325856,156.451712 515.921189,157.857203 514.182078,157.857203 C512.446311,157.857203 511.034956,156.451712 511.034956,154.714928 C511.034956,152.974797 512.446311,151.555922 514.182078,151.555922 C515.921189,151.555922 517.325856,152.974797 517.325856,154.714928" id="Fill-251" fill="#FFFFFE"></path>
                    <path d="M321.1976,488.164131 C320.963489,479.968784 314.287978,473.386405 306.043922,473.386405 C297.799867,473.386405 291.124356,479.968784 290.8869,488.164131 L321.1976,488.164131" id="Fill-252" fill="#493929"></path>
                    <path d="M359.157044,488.164131 C358.926278,479.968784 352.244078,473.386405 344.000022,473.386405 C335.759311,473.386405 329.080456,479.968784 328.846344,488.164131 L359.157044,488.164131" id="Fill-253" fill="#493929"></path>
                    <path d="M492.573622,488.164131 C492.389678,481.682144 487.098767,476.471791 480.580444,476.471791 C474.055433,476.471791 468.771211,481.682144 468.587267,488.164131 L492.573622,488.164131" id="Fill-254" fill="#493929"></path>
                    <path d="M509.830956,469.90949 C509.693833,464.799529 505.519967,460.686797 500.379556,460.686797 C495.232456,460.686797 491.058589,464.799529 490.914778,469.90949 L509.830956,469.90949" id="Fill-255" fill="#FEEFAE"></path>
                    <path d="M403.594678,453.980601 C403.450867,448.863948 399.283689,444.751216 394.136589,444.751216 C388.989489,444.751216 384.818967,448.863948 384.675156,453.980601 L403.594678,453.980601" id="Fill-256" fill="#FEEFAE"></path>
                    <path d="M264.138033,488.164131 C263.994222,483.05417 259.820356,478.934745 254.679944,478.934745 C249.532844,478.934745 245.365667,483.05417 245.215167,488.164131 L264.138033,488.164131" id="Fill-257" fill="#FEEFAE"></path>
                    <path d="M158.794722,488.164131 C158.650911,483.05417 154.483733,478.934745 149.336633,478.934745 C144.189533,478.934745 140.022356,483.05417 139.871856,488.164131 L158.794722,488.164131" id="Fill-258" fill="#493929"></path>
                    <path d="M95.7486,458.973438 C95.6047889,453.863477 91.4376111,449.754092 86.2905111,449.754092 C81.1434111,449.754092 76.9762333,453.863477 76.8324222,458.973438 L95.7486,458.973438" id="Fill-259" fill="#493929"></path>
                    <path d="M604.324889,488.164131 C604.181078,483.05417 600.0139,478.934745 594.873489,478.934745 C589.726389,478.934745 585.552522,483.05417 585.408711,488.164131 L604.324889,488.164131" id="Fill-260" fill="#493929"></path>
                    <path d="M536.372467,488.164131 C536.145044,479.975477 529.4595,473.386405 521.225478,473.386405 C512.974733,473.386405 506.305911,479.975477 506.061767,488.164131 L536.372467,488.164131" id="Fill-261" fill="#493929"></path>
                    <polygon id="Fill-262" fill="#3E2726" points="128.808433 257.928105 156.162644 257.928105 156.162644 247.641255 128.808433 247.641255"></polygon>
                    <polygon id="Fill-263" fill="#3E2726" points="207.198867 257.928105 234.556422 257.928105 234.556422 247.641255 207.198867 247.641255"></polygon>
                    <polyline id="Fill-264" fill="#9A2728" points="521.523133 400.505046 485.008489 431.576418 481.791133 427.784941 518.305778 396.713569 521.523133 400.505046"></polyline>
                    <polyline id="Fill-265" fill="#5D1C1D" points="430.453911 384.198013 384.905922 386.871791 384.571478 381.313412 429.644556 378.622902 430.453911 384.198013"></polyline>
                    <path d="M493.245856,152.191739 C493.710733,151.348444 493.403044,150.294327 492.560244,149.832523 C491.730822,149.374065 490.667289,149.675242 490.202411,150.518536 C483.593789,162.562248 472.881533,160.955974 469.346456,160.032366 C469.634078,161.320732 469.971867,162.575634 470.423367,163.766954 C471.520344,163.934275 472.807956,164.071477 474.252756,164.071477 C479.988478,164.071477 487.878022,161.986667 493.245856,152.191739" id="Fill-266" fill="#DC3F39"></path>
                    <path d="M474.670811,138.484863 C474.670811,140.941124 472.677522,142.935582 470.2227,142.935582 C467.764533,142.935582 465.774589,140.941124 465.774589,138.484863 C465.774589,136.021908 467.764533,134.034144 470.2227,134.034144 C472.677522,134.034144 474.670811,136.021908 474.670811,138.484863" id="Fill-267" fill="#F5C187"></path>
                    <path d="M278.191389,151.087425 C278.191389,154.353516 275.545933,156.99383 272.2851,156.99383 C269.024267,156.99383 266.378811,154.353516 266.378811,151.087425 C266.378811,147.831373 269.024267,145.177673 272.2851,145.177673 C275.545933,145.177673 278.191389,147.831373 278.191389,151.087425" id="Fill-268" fill="#EEA169"></path>
                </g>
            </g>
        </g>
    </g>
</svg>